<svg width="665" height="461" xmlns="http://www.w3.org/2000/svg" xmlns:xlink="http://www.w3.org/1999/xlink" overflow="hidden"><defs><clipPath id="clip0"><rect x="0" y="0" width="665" height="461"/></clipPath></defs><g clip-path="url(#clip0)"><rect x="0" y="0" width="665" height="460.949" fill="#FFFFFF"/><path d="M14 21.9317C14 12.0281 22.0293 3.9996 31.934 3.9996L626.066 3.9996C635.971 3.9996 644 12.0281 644 21.9317L644 439.017C644 448.921 635.971 456.949 626.066 456.949L31.934 456.949C22.0293 456.949 14 448.921 14 439.017Z" fill="#DAE3F3" fill-rule="evenodd"/><rect x="44.5" y="269.47" width="24.9999" height="26.9969" stroke="#000000" stroke-width="1.333" stroke-miterlimit="8" fill="#FF7E79"/><rect x="48.5" y="273.47" width="25" height="27.9969" stroke="#000000" stroke-width="1.333" stroke-miterlimit="8" fill="#FF7E79"/><rect x="52.5" y="278.469" width="25" height="26.9971" stroke="#000000" stroke-width="1.333" stroke-miterlimit="8" fill="#FF7E79"/><text font-family="Lucida Calligraphy,Lucida Calligraphy_MSFontService,sans-serif" font-style="oblique" font-weight="400" font-size="10" transform="matrix(1 0 0 0.999889 57.7259 294)">X</text><text font-family="Lucida Calligraphy,Lucida Calligraphy_MSFontService,sans-serif" font-style="oblique" font-weight="400" font-size="7" transform="matrix(1 0 0 0.999889 65.5573 296)">t</text><path d="M2.48663e-06-0.999639 35.5257-0.99955 35.5257 0.999727-2.48663e-06 0.999639ZM34.1929-3.99847 42.19 0.000104949 34.1929 3.99864Z" fill="#FF7E79" transform="matrix(1.00011 0 0 -1 84.0001 288.968)"/><path d="M133 252.306C133 243.838 139.865 236.974 148.334 236.974L214.666 236.974C223.135 236.974 230 243.838 230 252.306L230 313.632C230 322.099 223.135 328.964 214.666 328.964L148.334 328.964C139.865 328.964 133 322.099 133 313.632Z" stroke="#000000" stroke-width="1.9995" stroke-miterlimit="8" fill="none" fill-rule="evenodd"/><rect x="138.5" y="258.842" width="6.62912" height="60.6224" fill="#FF7E79"/><path d="M145.129 258.842 154.5 249.472 154.5 310.095 145.129 319.465Z" fill="#CD6561" fill-rule="evenodd"/><path d="M138.5 258.842 147.871 249.472 154.5 249.472 145.129 258.842Z" fill="#FF9793" fill-rule="evenodd"/><path d="M138.5 258.842 147.871 249.472 154.5 249.472 154.5 310.095 145.129 319.465 138.5 319.465ZM138.5 258.842 145.129 258.842 154.5 249.472M145.129 258.842 145.129 319.465" stroke="#000000" stroke-width="0.999749" stroke-miterlimit="8" fill="none" fill-rule="evenodd"/><rect x="150.5" y="267.06" width="10.4099" height="46.4048" fill="#FF7E79"/><path d="M160.91 267.06 171.5 256.472 171.5 302.876 160.91 313.465Z" fill="#CD6561" fill-rule="evenodd"/><path d="M150.5 267.06 161.09 256.472 171.5 256.472 160.91 267.06Z" fill="#FF9793" fill-rule="evenodd"/><path d="M150.5 267.06 161.09 256.472 171.5 256.472 171.5 302.876 160.91 313.465 150.5 313.465ZM150.5 267.06 160.91 267.06 171.5 256.472M160.91 267.06 160.91 313.465" stroke="#000000" stroke-width="0.999749" stroke-miterlimit="8" fill="none" fill-rule="evenodd"/><rect x="164.5" y="273.454" width="13.0161" height="37.0121" fill="#FF7E79"/><path d="M177.516 273.454 190.5 260.471 190.5 297.483 177.516 310.466Z" fill="#CD6561" fill-rule="evenodd"/><path d="M164.5 273.454 177.484 260.471 190.5 260.471 177.516 273.454Z" fill="#FF9793" fill-rule="evenodd"/><path d="M164.5 273.454 177.484 260.471 190.5 260.471 190.5 297.483 177.516 310.466 164.5 310.466ZM164.5 273.454 177.516 273.454 190.5 260.471M177.516 273.454 177.516 310.466" stroke="#000000" stroke-width="0.999749" stroke-miterlimit="8" fill="none" fill-rule="evenodd"/><rect x="181.5" y="281.514" width="15.9544" height="23.9517" fill="#FF7E79"/><path d="M197.454 281.514 207.5 271.47 207.5 295.422 197.454 305.466Z" fill="#CD6561" fill-rule="evenodd"/><path d="M181.5 281.514 191.546 271.47 207.5 271.47 197.454 281.514Z" fill="#FF9793" fill-rule="evenodd"/><path d="M181.5 281.514 191.546 271.47 207.5 271.47 207.5 295.422 197.454 305.466 181.5 305.466ZM181.5 281.514 197.454 281.514 207.5 271.47M197.454 281.514 197.454 305.466" stroke="#000000" stroke-width="0.999749" stroke-miterlimit="8" fill="none" fill-rule="evenodd"/><rect x="201.5" y="283.429" width="21.0396" height="16.0378" fill="#FF7E79"/><path d="M222.54 283.429 226.5 279.469 226.5 295.507 222.54 299.467Z" fill="#CD6561" fill-rule="evenodd"/><path d="M201.5 283.429 205.46 279.469 226.5 279.469 222.54 283.429Z" fill="#FF9793" fill-rule="evenodd"/><path d="M201.5 283.429 205.46 279.469 226.5 279.469 226.5 295.507 222.54 299.467 201.5 299.467ZM201.5 283.429 222.54 283.429 226.5 279.469M222.54 283.429 222.54 299.467" stroke="#000000" stroke-width="0.999749" stroke-miterlimit="8" fill="none" fill-rule="evenodd"/><path d="M164.5 279.136C164.5 277.111 166.142 275.469 168.167 275.469L187.833 275.469C189.858 275.469 191.5 277.111 191.5 279.136L191.5 293.801C191.5 295.826 189.858 297.467 187.833 297.467L168.167 297.467C166.142 297.467 164.5 295.826 164.5 293.801Z" stroke="#000000" stroke-width="1.333" stroke-miterlimit="8" fill="#FFFFFF" fill-rule="evenodd"/><text font-family="Cambria Math,Cambria Math_MSFontService,sans-serif" font-weight="400" font-size="13" transform="matrix(1 0 0 0.999889 169.245 290)"></text><text font-family="Cambria Math,Cambria Math_MSFontService,sans-serif" font-weight="400" font-size="13" transform="matrix(1 0 0 0.999889 172.077 290)">πΉ</text><text font-family="Cambria Math,Cambria Math_MSFontService,sans-serif" font-weight="400" font-size="9" transform="matrix(1 0 0 0.999889 178.363 293)">π‘΅</text><path d="M0 15.332C-3.05518e-15 6.86435 6.86435 0 15.3319 0L80.6574 0C89.125-3.05518e-15 95.9893 6.86435 95.9893 15.332L95.9893 76.6579C95.9893 85.1255 89.125 91.9898 80.6574 91.9898L15.3319 91.9898C6.86435 91.9898 0 85.1255 0 76.6579Z" stroke="#000000" stroke-width="1.99928" stroke-miterlimit="8" fill="none" fill-rule="evenodd" transform="matrix(-1.00011 0 0 1 230 61.9931)"/><rect x="0" y="8.78424" width="6.21411" height="61.208" fill="#76D6FF" transform="matrix(-1.00011 0 0 1 225.5 74.4917)"/><path d="M6.21411 8.78424 14.9984 0 14.9984 61.208 6.21411 69.9922Z" fill="#5FACCD" fill-rule="evenodd" transform="matrix(-1.00011 0 0 1 225.5 74.4917)"/><path d="M0 8.78424 8.78425 0 14.9984 0 6.21411 8.78424Z" fill="#91DEFF" fill-rule="evenodd" transform="matrix(-1.00011 0 0 1 225.5 74.4917)"/><path d="M0 8.78424 8.78425 0 14.9984 0 14.9984 61.208 6.21411 69.9922 0 69.9922ZM0 8.78424 6.21411 8.78424 14.9984 0M6.21411 8.78424 6.21411 69.9922" stroke="#000000" stroke-width="0.999639" stroke-miterlimit="8" fill="none" fill-rule="evenodd" transform="matrix(-1.00011 0 0 1 225.5 74.4917)"/><rect x="0" y="10.5889" width="10.4088" height="46.4048" fill="#76D6FF" transform="matrix(-1.00011 0 0 1 214.5 81.491)"/><path d="M10.4088 10.5889 20.9977 0 20.9977 46.4048 10.4088 56.9937Z" fill="#5FACCD" fill-rule="evenodd" transform="matrix(-1.00011 0 0 1 214.5 81.491)"/><path d="M0 10.5889 10.5889 0 20.9977 0 10.4088 10.5889Z" fill="#91DEFF" fill-rule="evenodd" transform="matrix(-1.00011 0 0 1 214.5 81.491)"/><path d="M0 10.5889 10.5889 0 20.9977 0 20.9977 46.4048 10.4088 56.9937 0 56.9937ZM0 10.5889 10.4088 10.5889 20.9977 0M10.4088 10.5889 10.4088 56.9937" stroke="#000000" stroke-width="0.999639" stroke-miterlimit="8" fill="none" fill-rule="evenodd" transform="matrix(-1.00011 0 0 1 214.5 81.491)"/><rect x="0" y="12.9824" width="13.0147" height="37.012" fill="#76D6FF" transform="matrix(-1.00011 0 0 1 199.5 85.4906)"/><path d="M13.0147 12.9824 25.9971 0 25.9971 37.012 13.0147 49.9944Z" fill="#5FACCD" fill-rule="evenodd" transform="matrix(-1.00011 0 0 1 199.5 85.4906)"/><path d="M0 12.9824 12.9824 0 25.9971 0 13.0147 12.9824Z" fill="#91DEFF" fill-rule="evenodd" transform="matrix(-1.00011 0 0 1 199.5 85.4906)"/><path d="M0 12.9824 12.9824 0 25.9971 0 25.9971 37.012 13.0147 49.9944 0 49.9944ZM0 12.9824 13.0147 12.9824 25.9971 0M13.0147 12.9824 13.0147 49.9944" stroke="#000000" stroke-width="0.999639" stroke-miterlimit="8" fill="none" fill-rule="evenodd" transform="matrix(-1.00011 0 0 1 199.5 85.4906)"/><rect x="0" y="9.65817" width="15.3391" height="24.338" fill="#76D6FF" transform="matrix(-1.00011 0 0 1 182.5 96.4893)"/><path d="M15.3391 9.65817 24.9973 0 24.9973 24.338 15.3391 33.9962Z" fill="#5FACCD" fill-rule="evenodd" transform="matrix(-1.00011 0 0 1 182.5 96.4893)"/><path d="M0 9.65817 9.65818 0 24.9973 0 15.3391 9.65817Z" fill="#91DEFF" fill-rule="evenodd" transform="matrix(-1.00011 0 0 1 182.5 96.4893)"/><path d="M0 9.65817 9.65818 0 24.9973 0 24.9973 24.338 15.3391 33.9962 0 33.9962ZM0 9.65817 15.3391 9.65817 24.9973 0M15.3391 9.65817 15.3391 33.9962" stroke="#000000" stroke-width="0.999639" stroke-miterlimit="8" fill="none" fill-rule="evenodd" transform="matrix(-1.00011 0 0 1 182.5 96.4893)"/><rect x="0" y="3.95996" width="22.0372" height="16.0379" fill="#76D6FF" transform="matrix(-1.00011 0 0 1 163.5 104.488)"/><path d="M22.0372 3.95996 25.9971 0 25.9971 16.0379 22.0372 19.9978Z" fill="#5FACCD" fill-rule="evenodd" transform="matrix(-1.00011 0 0 1 163.5 104.488)"/><path d="M0 3.95996 3.95995 0 25.9971 0 22.0372 3.95996Z" fill="#91DEFF" fill-rule="evenodd" transform="matrix(-1.00011 0 0 1 163.5 104.488)"/><path d="M0 3.95996 3.95995 0 25.9971 0 25.9971 16.0379 22.0372 19.9978 0 19.9978ZM0 3.95996 22.0372 3.95996 25.9971 0M22.0372 3.95996 22.0372 19.9978" stroke="#000000" stroke-width="0.999639" stroke-miterlimit="8" fill="none" fill-rule="evenodd" transform="matrix(-1.00011 0 0 1 163.5 104.488)"/><path d="M0 3.66635C-8.27445e-16 1.64148 1.64148 -8.27445e-16 3.66635 -8.27445e-16L22.3308 0C24.3556 -8.27445e-16 25.9971 1.64148 25.9971 3.66635L25.9971 18.3313C25.9971 20.3561 24.3556 21.9976 22.3308 21.9976L3.66635 21.9976C1.64148 21.9976 -4.13722e-16 20.3561 -4.13722e-16 18.3313Z" stroke="#000000" stroke-width="1.33285" stroke-miterlimit="8" fill="#FFFFFF" fill-rule="evenodd" transform="matrix(-1.00011 0 0 1 199.5 100.489)"/><text font-family="Cambria Math,Cambria Math_MSFontService,sans-serif" font-weight="400" font-size="13" transform="matrix(1 0 0 0.999889 178.729 115)"></text><text font-family="Cambria Math,Cambria Math_MSFontService,sans-serif" font-weight="400" font-size="13" transform="matrix(1 0 0 0.999889 181.562 115)">πΊ</text><path d="M2.90107e-06-0.999639 29.4986-0.999553 29.4986 0.999724-2.90107e-06 0.999639ZM28.1658-3.99847 36.1629 0.000104949 28.1658 3.99864Z" fill="#FF7E79" transform="matrix(1.00011 0 0 -1 233 285.968)"/><path d="M85 103.989 120.53 103.989 120.53 105.988 85 105.988ZM119.197 100.99 127.195 104.989 119.197 108.987Z" fill="#76D6FF"/><rect x="70.5" y="93.4897" width="10" height="9.9989" stroke="#000000" stroke-width="0.999749" stroke-miterlimit="8" fill="#F4B183"/><rect x="60.5" y="93.4897" width="10" height="9.9989" stroke="#000000" stroke-width="0.999749" stroke-miterlimit="8" fill="#F4B183"/><rect x="51.5" y="93.4897" width="9.00005" height="9.9989" stroke="#000000" stroke-width="0.999749" stroke-miterlimit="8" fill="#F4B183"/><rect x="41.5" y="93.4897" width="9.99991" height="9.9989" stroke="#000000" stroke-width="0.999749" stroke-miterlimit="8" fill="#F4B183"/><rect x="31.5" y="93.4897" width="10" height="9.9989" stroke="#000000" stroke-width="0.999749" stroke-miterlimit="8" fill="#F4B183"/><rect x="70.5" y="112.488" width="10" height="9.99891" stroke="#000000" stroke-width="0.999749" stroke-miterlimit="8" fill="#A9D18E"/><rect x="60.5" y="112.488" width="10" height="9.99891" stroke="#000000" stroke-width="0.999749" stroke-miterlimit="8" fill="#A9D18E"/><rect x="51.5" y="112.488" width="10" height="9.99891" stroke="#000000" stroke-width="0.999749" stroke-miterlimit="8" fill="#A9D18E"/><rect x="41.5" y="112.488" width="9.99991" height="9.99891" stroke="#000000" stroke-width="0.999749" stroke-miterlimit="8" fill="#A9D18E"/><rect x="31.5" y="112.488" width="10" height="9.99891" stroke="#000000" stroke-width="0.999749" stroke-miterlimit="8" fill="#A9D18E"/><text font-family="Cambria Math,Cambria Math_MSFontService,sans-serif" font-weight="400" font-size="10" transform="matrix(1 0 0 0.999889 41.4903 88)">πΏπ‘π‘π‘’π‘™</text><text font-family="Cambria Math,Cambria Math_MSFontService,sans-serif" font-weight="400" font-size="10" transform="matrix(1 0 0 0.999889 64.9511 88)"></text><text font-family="Cambria Math,Cambria Math_MSFontService,sans-serif" font-weight="400" font-size="10" transform="matrix(1 0 0 0.999889 67.1172 88)">π‘¦</text><text font-family="Cambria Math,Cambria Math_MSFontService,sans-serif" font-weight="400" font-size="7" transform="matrix(1 0 0 0.999889 71.6094 90)">π‘ </text><text font-family="Cambria Math,Cambria Math_MSFontService,sans-serif" font-weight="400" font-size="10" transform="matrix(1 0 0 0.999889 41.0924 134)">π‘π‘π‘–π‘ π‘’</text><text font-family="Cambria Math,Cambria Math_MSFontService,sans-serif" font-weight="400" font-size="10" transform="matrix(1 0 0 0.999889 65.293 134)"></text><text font-family="Cambria Math,Cambria Math_MSFontService,sans-serif" font-weight="400" font-size="10" transform="matrix(1 0 0 0.999889 67.4591 134)">π’›</text><path d="M233 103.989 262.502 103.989 262.502 105.988 233 105.988ZM261.169 100.99 269.167 104.989 261.169 108.987Z" fill="#76D6FF"/><path d="M582.5 105.988C582.5 99.0855 592.797 93.4897 605.5 93.4897 618.203 93.4897 628.5 99.0855 628.5 105.988 628.5 112.891 618.203 118.487 605.5 118.487 592.797 118.487 582.5 112.891 582.5 105.988Z" stroke="#000000" stroke-width="1.333" stroke-miterlimit="8" fill="#F2F2F2" fill-rule="evenodd"/><text font-family="Cambria Math,Cambria Math_MSFontService,sans-serif" font-weight="400" font-size="13" transform="matrix(1 0 0 0.999889 596.246 110)">β„’</text><text font-family="Cambria Math,Cambria Math_MSFontService,sans-serif" font-weight="400" font-size="9" transform="matrix(1 0 0 0.999889 603.817 112)">π‘”</text><path d="M582.5 373.958C582.5 367.056 592.797 361.46 605.5 361.46 618.203 361.46 628.5 367.056 628.5 373.958 628.5 380.861 618.203 386.457 605.5 386.457 592.797 386.457 582.5 380.861 582.5 373.958Z" stroke="#000000" stroke-width="1.333" stroke-miterlimit="8" fill="#F2F2F2" fill-rule="evenodd"/><text font-family="Cambria Math,Cambria Math_MSFontService,sans-serif" font-weight="400" font-size="13" transform="matrix(1 0 0 0.999889 594.674 378)">β„’</text><text font-family="Cambria Math,Cambria Math_MSFontService,sans-serif" font-weight="400" font-size="9" transform="matrix(1 0 0 0.999889 602.818 381)">π‘–π‘</text><path d="M582.5 288.968C582.5 282.065 592.797 276.469 605.5 276.469 618.203 276.469 628.5 282.065 628.5 288.968 628.5 295.871 618.203 301.467 605.5 301.467 592.797 301.467 582.5 295.871 582.5 288.968Z" stroke="#000000" stroke-width="1.333" stroke-miterlimit="8" fill="#F2F2F2" fill-rule="evenodd"/><text font-family="Cambria Math,Cambria Math_MSFontService,sans-serif" font-weight="400" font-size="13" transform="matrix(1 0 0 0.999889 592.577 294)">β„’</text><text font-family="Cambria Math,Cambria Math_MSFontService,sans-serif" font-weight="400" font-size="9" transform="matrix(1 0 0 0.999889 600.722 296)">π‘π‘–</text><path d="M583.5 198.478C583.5 191.851 593.574 186.479 606 186.479 618.426 186.479 628.5 191.851 628.5 198.478 628.5 205.105 618.426 210.477 606 210.477 593.574 210.477 583.5 205.105 583.5 198.478Z" stroke="#000000" stroke-width="1.333" stroke-miterlimit="8" fill="#F2F2F2" fill-rule="evenodd"/><text font-family="Cambria Math,Cambria Math_MSFontService,sans-serif" font-weight="400" font-size="13" transform="matrix(1 0 0 0.999889 592.271 203)">β„’</text><text font-family="Cambria Math,Cambria Math_MSFontService,sans-serif" font-weight="400" font-size="9" transform="matrix(1 0 0 0.999889 600.416 206)">π‘‘π‘–π‘ </text><path d="M357.816 214.033C356.702 203.627 366.426 194.054 379.535 192.652 392.643 191.249 404.173 198.548 405.286 208.953 406.4 219.359 396.676 228.932 383.568 230.334 370.459 231.737 358.93 224.438 357.816 214.033Z" stroke="#76D6FF" stroke-width="1.9995" stroke-miterlimit="8" fill="none" fill-rule="evenodd"/><path d="M371.386 207.242C372.892 196.886 384.688 190.028 397.735 191.924 410.781 193.82 420.137 203.753 418.631 214.11 417.126 224.466 405.329 231.324 392.282 229.428 379.236 227.532 369.88 217.599 371.386 207.242Z" stroke="#FF7E79" stroke-width="1.99949" stroke-miterlimit="8" fill="none" fill-rule="evenodd"/><path d="M363.777 207.356C364.103 205.694 365.581 204.585 367.077 204.878 368.573 205.172 369.521 206.758 369.195 208.42 368.868 210.083 367.391 211.192 365.895 210.898 364.398 210.604 363.45 209.018 363.777 207.356Z" stroke="#172C51" stroke-width="1.33299" stroke-miterlimit="8" fill="#76D6FF" fill-rule="evenodd"/><path d="M392.745 215.305C393.071 213.642 394.549 212.533 396.045 212.827 397.541 213.121 398.489 214.707 398.162 216.369 397.836 218.031 396.358 219.141 394.862 218.847 393.366 218.553 392.418 216.967 392.745 215.305Z" stroke="#172C51" stroke-width="1.33299" stroke-miterlimit="8" fill="#76D6FF" fill-rule="evenodd"/><path d="M366.278 221.764C366.604 220.102 368.082 218.992 369.578 219.286 371.074 219.58 372.022 221.166 371.696 222.828 371.369 224.49 369.892 225.6 368.396 225.306 366.899 225.012 365.951 223.426 366.278 221.764Z" stroke="#172C51" stroke-width="1.33299" stroke-miterlimit="8" fill="#76D6FF" fill-rule="evenodd"/><path d="M382.506 219.078C382.833 217.415 384.31 216.306 385.806 216.6 387.302 216.894 388.251 218.48 387.924 220.142 387.597 221.804 386.12 222.913 384.624 222.62 383.128 222.326 382.18 220.74 382.506 219.078Z" stroke="#172C51" stroke-width="1.33299" stroke-miterlimit="8" fill="#76D6FF" fill-rule="evenodd"/><path d="M376.626 201.901C376.953 200.239 378.43 199.129 379.927 199.423 381.423 199.717 382.371 201.303 382.044 202.965 381.718 204.627 380.24 205.737 378.744 205.443 377.248 205.149 376.3 203.563 376.626 201.901Z" stroke="#172C51" stroke-width="1.33299" stroke-miterlimit="8" fill="#76D6FF" fill-rule="evenodd"/><path d="M387.861 204.667C388.188 203.005 389.665 201.895 391.162 202.189 392.658 202.483 393.606 204.069 393.279 205.731 392.953 207.393 391.475 208.503 389.979 208.209 388.483 207.915 387.535 206.329 387.861 204.667Z" stroke="#172C51" stroke-width="1.33299" stroke-miterlimit="8" fill="#FF7E79" fill-rule="evenodd"/><path d="M407.849 203.454C408.176 201.791 409.653 200.682 411.149 200.976 412.645 201.27 413.593 202.856 413.267 204.518 412.94 206.18 411.463 207.289 409.967 206.996 408.471 206.702 407.522 205.116 407.849 203.454Z" stroke="#172C51" stroke-width="1.33299" stroke-miterlimit="8" fill="#FF7E79" fill-rule="evenodd"/><path d="M375.797 210.35C376.124 208.688 377.601 207.578 379.097 207.872 380.593 208.166 381.541 209.752 381.215 211.414 380.888 213.076 379.411 214.186 377.915 213.892 376.418 213.598 375.47 212.012 375.797 210.35Z" stroke="#172C51" stroke-width="1.33299" stroke-miterlimit="8" fill="#FF7E79" fill-rule="evenodd"/><path d="M406.665 219.067C406.991 217.404 408.469 216.295 409.965 216.589 411.461 216.883 412.409 218.469 412.083 220.131 411.756 221.793 410.279 222.902 408.782 222.609 407.286 222.315 406.338 220.729 406.665 219.067Z" stroke="#172C51" stroke-width="1.33299" stroke-miterlimit="8" fill="#FF7E79" fill-rule="evenodd"/><path d="M401.757 208.509C402.083 206.847 403.561 205.738 405.057 206.031 406.553 206.325 407.501 207.911 407.175 209.573 406.848 211.236 405.371 212.345 403.874 212.051 402.378 211.757 401.43 210.171 401.757 208.509Z" stroke="#172C51" stroke-width="1.33299" stroke-miterlimit="8" fill="#FF7E79" fill-rule="evenodd"/><path d="M443.556 217.559C442.352 208.869 454.558 199.997 470.819 197.743 487.081 195.489 501.241 200.707 502.445 209.397 503.65 218.088 491.444 226.96 475.182 229.214 458.921 231.468 444.761 226.25 443.556 217.559Z" stroke="#76D6FF" stroke-width="1.99949" stroke-miterlimit="8" fill="none" fill-rule="evenodd"/><path d="M461.41 216.744C459.747 208.129 471.467 198.624 487.587 195.513 503.706 192.401 518.122 196.863 519.785 205.477 521.448 214.091 509.728 223.597 493.609 226.708 477.489 229.819 463.073 225.358 461.41 216.744Z" stroke="#FF7E79" stroke-width="1.99949" stroke-miterlimit="8" fill="none" fill-rule="evenodd"/><path d="M500.775 219.902 505.232 215.67 505.35 221.815Z" stroke="#172C51" stroke-width="0.666489" stroke-miterlimit="8" fill="#FF7E79" fill-rule="evenodd"/><path d="M488.909 209.883 493.366 205.65 493.485 211.795Z" stroke="#172C51" stroke-width="0.666489" stroke-miterlimit="8" fill="#FF7E79" fill-rule="evenodd"/><path d="M469.793 212.093 474.25 207.861 474.368 214.006Z" stroke="#172C51" stroke-width="0.666489" stroke-miterlimit="8" fill="#FF7E79" fill-rule="evenodd"/><path d="M503.597 204.847 508.054 200.615 508.172 206.759Z" stroke="#172C51" stroke-width="0.666489" stroke-miterlimit="8" fill="#FF7E79" fill-rule="evenodd"/><path d="M469.03 221.563 473.487 217.331 473.605 223.476Z" stroke="#172C51" stroke-width="0.666489" stroke-miterlimit="8" fill="#FF7E79" fill-rule="evenodd"/><path d="M478.139 207.898 482.596 203.665 482.715 209.81Z" stroke="#172C51" stroke-width="0.666489" stroke-miterlimit="8" fill="#76D6FF" fill-rule="evenodd"/><path d="M479.418 219.602 483.875 215.37 483.994 221.514Z" stroke="#172C51" stroke-width="0.666489" stroke-miterlimit="8" fill="#76D6FF" fill-rule="evenodd"/><path d="M456.518 209.223 460.975 204.99 461.094 211.135Z" stroke="#172C51" stroke-width="0.666489" stroke-miterlimit="8" fill="#76D6FF" fill-rule="evenodd"/><path d="M449.896 217.211 454.353 212.979 454.472 219.124Z" stroke="#172C51" stroke-width="0.666489" stroke-miterlimit="8" fill="#76D6FF" fill-rule="evenodd"/><path d="M454.079 223.254 458.536 219.022 458.654 225.166Z" stroke="#172C51" stroke-width="0.666489" stroke-miterlimit="8" fill="#76D6FF" fill-rule="evenodd"/><path d="M487.096 218.345 491.553 214.113 491.671 220.257Z" stroke="#172C51" stroke-width="0.666489" stroke-miterlimit="8" fill="#76D6FF" fill-rule="evenodd"/><path d="M508.129 213.397 512.586 209.165 512.704 215.31Z" stroke="#172C51" stroke-width="0.666489" stroke-miterlimit="8" fill="#FF7E79" fill-rule="evenodd"/><path d="M422.5 213.976 427 209.477 427 211.825 438 211.825 438 209.477 442.5 213.976 438 218.476 438 216.128 427 216.128 427 218.476Z" stroke="#000000" stroke-width="1.333" stroke-miterlimit="8" fill="none" fill-rule="evenodd"/><path d="M385.258 180.331 390.331 180.82 390.537 178.68 394.405 183.373 389.712 187.24 389.918 185.1 384.845 184.611Z" stroke="#000000" stroke-width="1.333" stroke-miterlimit="8" fill="none" fill-rule="evenodd"/><path d="M0 2.14993 5.09601 2.14993 5.09601 0 9.39588 4.29987 5.09601 8.59974 5.09601 6.4498 0 6.4498Z" stroke="#000000" stroke-width="1.33285" stroke-miterlimit="8" fill="none" fill-rule="evenodd" transform="matrix(-0.995493 -0.0959768 -0.0959875 0.995383 405.696 180.143)"/><path d="M487.801 192.148 492.576 190.369 491.826 188.355 497.357 190.883 494.828 196.413 494.078 194.399 489.302 196.178Z" stroke="#000000" stroke-width="1.33298" stroke-miterlimit="8" fill="none" fill-rule="evenodd"/><path d="M0 2.14989 5.0959 2.14989 5.0959 0 9.39568 4.29978 5.0959 8.59956 5.0959 6.44967 0 6.44967Z" stroke="#000000" stroke-width="1.33287" stroke-miterlimit="8" fill="none" fill-rule="evenodd" transform="matrix(-0.937173 0.349105 0.349143 0.937069 506.097 183.04)"/><path d="M355 182.647C355 176.204 360.223 170.981 366.667 170.981L512.333 170.981C518.777 170.981 524 176.204 524 182.647L524 229.308C524 235.75 518.777 240.973 512.333 240.973L366.667 240.973C360.223 240.973 355 235.75 355 229.308Z" stroke="#000000" stroke-width="1.9995" stroke-miterlimit="8" fill="none" fill-rule="evenodd"/><rect x="88.5" y="382.458" width="33" height="5.9993" stroke="#FF7E79" stroke-width="1.33285" stroke-miterlimit="8" fill="none"/><rect x="88.5" y="392.456" width="33" height="4.99945" stroke="#FF7E79" stroke-width="1.33285" stroke-miterlimit="8" fill="none"/><rect x="88.5" y="401.456" width="33" height="4.99945" stroke="#FF7E79" stroke-width="1.33285" stroke-miterlimit="8" fill="none"/><text font-family="DengXian,DengXian_MSFontService,sans-serif" font-weight="700" font-size="7" transform="matrix(1 0 0 0.999889 101.629 413)">...</text><rect x="88.5" y="419.453" width="33" height="5.9993" stroke="#FF7E79" stroke-width="1.33285" stroke-miterlimit="8" fill="none"/><path d="M131.5 385.457C131.5 383.801 132.843 382.458 134.5 382.458 136.157 382.458 137.5 383.801 137.5 385.457 137.5 387.114 136.157 388.457 134.5 388.457 132.843 388.457 131.5 387.114 131.5 385.457Z" stroke="#FF7E79" stroke-width="0.999749" stroke-miterlimit="8" fill="none" fill-rule="evenodd"/><rect x="141.5" y="382.458" width="5" height="4.99945" stroke="#C62828" stroke-width="0.999749" stroke-miterlimit="8" fill="none"/><path d="M150.5 387.457 154 382.458 157.5 387.457Z" stroke="#FF7E79" stroke-width="0.999749" stroke-miterlimit="8" fill="none" fill-rule="evenodd"/><path d="M177.5 384.367 180.5 382.458 183.5 384.367 182.354 387.457 178.646 387.457Z" stroke="#FF7E79" stroke-width="0.999749" stroke-miterlimit="8" fill="none" fill-rule="evenodd"/><text font-family="DengXian,DengXian_MSFontService,sans-serif" font-weight="700" font-size="7" transform="matrix(1 0 0 0.999889 165.223 386)">...</text><path d="M131.5 394.456C131.5 392.8 132.843 391.457 134.5 391.457 136.157 391.457 137.5 392.8 137.5 394.456 137.5 396.113 136.157 397.456 134.5 397.456 132.843 397.456 131.5 396.113 131.5 394.456Z" stroke="#FF7E79" stroke-width="0.999749" stroke-miterlimit="8" fill="none" fill-rule="evenodd"/><rect x="141.5" y="391.457" width="5" height="4.99945" stroke="#FF7E79" stroke-width="0.999749" stroke-miterlimit="8" fill="none"/><path d="M150.5 396.456 154 391.457 157.5 396.456Z" stroke="#C62828" stroke-width="0.999749" stroke-miterlimit="8" fill="none" fill-rule="evenodd"/><path d="M177.5 392.748 180.5 390.457 183.5 392.748 182.354 396.456 178.646 396.456Z" stroke="#FF7E79" stroke-width="0.999749" stroke-miterlimit="8" fill="none" fill-rule="evenodd"/><path d="M131.5 403.955C131.5 402.022 132.843 400.456 134.5 400.456 136.157 400.456 137.5 402.022 137.5 403.955 137.5 405.888 136.157 407.455 134.5 407.455 132.843 407.455 131.5 405.888 131.5 403.955Z" stroke="#FF7E79" stroke-width="0.999749" stroke-miterlimit="8" fill="none" fill-rule="evenodd"/><rect x="141.5" y="400.456" width="5" height="5.9993" stroke="#FF7E79" stroke-width="0.999749" stroke-miterlimit="8" fill="none"/><path d="M150.5 406.455 154 400.456 157.5 406.455Z" stroke="#C62828" stroke-width="0.999749" stroke-miterlimit="8" fill="none" fill-rule="evenodd"/><path d="M177.5 402.747 180.5 400.456 183.5 402.747 182.354 406.455 178.646 406.455Z" stroke="#FF7E79" stroke-width="0.999749" stroke-miterlimit="8" fill="none" fill-rule="evenodd"/><path d="M131.5 422.953C131.5 421.02 132.843 419.453 134.5 419.453 136.157 419.453 137.5 421.02 137.5 422.953 137.5 424.886 136.157 426.453 134.5 426.453 132.843 426.453 131.5 424.886 131.5 422.953Z" stroke="#FF7E79" stroke-width="0.999749" stroke-miterlimit="8" fill="none" fill-rule="evenodd"/><rect x="141.5" y="419.453" width="5" height="5.9993" stroke="#FF7E79" stroke-width="0.999749" stroke-miterlimit="8" fill="none"/><path d="M150.5 425.453 154 419.453 157.5 425.453Z" stroke="#FF7E79" stroke-width="0.999749" stroke-miterlimit="8" fill="none" fill-rule="evenodd"/><path d="M177.5 421.745 180.5 419.453 183.5 421.745 182.354 425.453 178.646 425.453Z" stroke="#C62828" stroke-width="0.999749" stroke-miterlimit="8" fill="none" fill-rule="evenodd"/><text font-family="DengXian,DengXian_MSFontService,sans-serif" font-weight="700" font-size="7" transform="matrix(1 0 0 0.999889 150.946 412)">...</text><path d="M84.0001 424.953C80.134 424.953 77 424.692 77 424.37L77 382.541C77 382.219 80.134 381.958 84.0001 381.958" stroke="#404040" stroke-width="1.9995" stroke-miterlimit="8" fill="none" fill-rule="evenodd"/><path d="M186 381.958C189.866 381.958 193 382.219 193 382.541L193 424.37C193 424.692 189.866 424.953 186 424.953" stroke="#404040" stroke-width="1.9995" stroke-miterlimit="8" fill="none" fill-rule="evenodd"/><text font-family="DengXian,DengXian_MSFontService,sans-serif" font-weight="700" font-size="7" transform="matrix(1 0 0 0.999889 164.928 394)">...</text><text font-family="DengXian,DengXian_MSFontService,sans-serif" font-weight="700" font-size="7" transform="matrix(1 0 0 0.999889 164.634 402)">...</text><text font-family="DengXian,DengXian_MSFontService,sans-serif" font-weight="700" font-size="7" transform="matrix(1 0 0 0.999889 164.34 423)">...</text><text fill="#FF7E79" font-family="Cambria Math,Cambria Math_MSFontService,sans-serif" font-weight="400" font-size="10" transform="matrix(1 0 0 0.999889 90.285 373)">π’π’†π’π’π’“π’</text><text fill="#FF7E79" font-family="Cambria Math,Cambria Math_MSFontService,sans-serif" font-weight="400" font-size="10" transform="matrix(1 0 0 0.999889 131.608 373)"></text><text fill="#FF7E79" font-family="Cambria Math,Cambria Math_MSFontService,sans-serif" font-weight="400" font-size="10" transform="matrix(1 0 0 0.999889 133.774 373)"></text><text fill="#FF7E79" font-family="Cambria Math,Cambria Math_MSFontService,sans-serif" font-weight="400" font-size="10" transform="matrix(1 0 0 0.999889 135.94 373)"></text><text fill="#FF7E79" font-family="Cambria Math,Cambria Math_MSFontService,sans-serif" font-weight="400" font-size="10" transform="matrix(1 0 0 0.999889 138.106 373)"></text><text fill="#FF7E79" font-family="Cambria Math,Cambria Math_MSFontService,sans-serif" font-weight="400" font-size="10" transform="matrix(1 0 0 0.999889 140.272 373)">π’ƒπ’‚π’π’</text><text font-family="Cambria Math,Cambria Math_MSFontService,sans-serif" font-weight="400" font-size="9" transform="matrix(1 0 0 0.999889 65.3515 389)">1</text><text font-family="Cambria Math,Cambria Math_MSFontService,sans-serif" font-weight="400" font-size="9" transform="matrix(1 0 0 0.999889 65.3515 397)">2</text><text font-family="Cambria Math,Cambria Math_MSFontService,sans-serif" font-weight="400" font-size="9" transform="matrix(1 0 0 0.999889 65.3515 405)">3</text><text font-family="Cambria Math,Cambria Math_MSFontService,sans-serif" font-weight="400" font-size="9" transform="matrix(1 0 0 0.999889 62.9388 425)">π‘</text><text font-family="Calibri,Calibri_MSFontService,sans-serif" font-style="italic" font-weight="400" font-size="9" transform="matrix(1 0 0 0.999889 69.3105 425)">t</text><text font-family="Cambria Math,Cambria Math_MSFontService,sans-serif" font-weight="400" font-size="8" transform="matrix(1 0 0 0.999889 87.209 436)">π’‡π’†π’‚π’•π’–π’“π’†π’”</text><text font-family="Cambria Math,Cambria Math_MSFontService,sans-serif" font-weight="400" font-size="8" transform="matrix(1 0 0 0.999889 136.614 435)">π’‘π’“π’†π’…π’π’„π’•π’π’π’π’”</text><path d="M35 401.455C35 376.329 75.0706 355.961 124.5 355.961 173.93 355.961 214 376.329 214 401.455 214 426.582 173.93 446.95 124.5 446.95 75.0706 446.95 35 426.582 35 401.455Z" stroke="#0D0D0D" stroke-width="1.9995" stroke-miterlimit="8" stroke-dasharray="7.998 5.9985" fill="none" fill-rule="evenodd"/><path d="M0-0.999639 65.3073-0.999639 65.3073 46.295 63.308 46.295 63.308 0 64.3077 0.999639 0 0.999639ZM68.3062 44.9621 64.3077 52.9592 60.3091 44.9621Z" fill="#76D6FF" transform="matrix(1.83717e-16 1 1.00011 -1.83697e-16 298 128.986)"/><path d="M296 263.502 296 201.978 344.319 201.978 344.319 203.977 297 203.977 298 202.977 298 263.502ZM342.986 198.979 350.984 202.977 342.986 206.976Z" fill="#FF7E79"/><path d="M402 356.127C402 350.513 406.552 345.962 412.167 345.962L467.833 345.962C473.448 345.962 478 350.513 478 356.127L478 396.789C478 402.404 473.448 406.955 467.833 406.955L412.167 406.955C406.552 406.955 402 402.404 402 396.789Z" stroke="#000000" stroke-width="1.9995" stroke-miterlimit="8" fill="none" fill-rule="evenodd"/><path d="M426.5 390.457 430.5 381.458 434.5 390.457Z" stroke="#C62828" stroke-width="1.333" stroke-miterlimit="8" fill="none" fill-rule="evenodd"/><path d="M434.5 395.456 438.5 386.457 442.5 395.456Z" stroke="#C62828" stroke-width="1.333" stroke-miterlimit="8" fill="none" fill-rule="evenodd"/><path d="M420.5 401.455 424.5 392.456 428.5 401.455Z" stroke="#C62828" stroke-width="1.333" stroke-miterlimit="8" fill="none" fill-rule="evenodd"/><path d="M458.5 373.959C458.5 371.474 460.291 369.459 462.5 369.459 464.709 369.459 466.5 371.474 466.5 373.959 466.5 376.444 464.709 378.458 462.5 378.458 460.291 378.458 458.5 376.444 458.5 373.959Z" stroke="#C62828" stroke-width="1.333" stroke-miterlimit="8" fill="none" fill-rule="evenodd"/><path d="M448.5 360.96C448.5 358.475 450.291 356.461 452.5 356.461 454.709 356.461 456.5 358.475 456.5 360.96 456.5 363.445 454.709 365.459 452.5 365.459 450.291 365.459 448.5 363.445 448.5 360.96Z" stroke="#C62828" stroke-width="1.333" stroke-miterlimit="8" fill="none" fill-rule="evenodd"/><text font-family="Calibri,Calibri_MSFontService,sans-serif" font-weight="700" font-size="7" transform="matrix(1 0 0 0.999889 461.704 389)">...</text><text font-family="Cambria Math,Cambria Math_MSFontService,sans-serif" font-weight="400" font-size="8" transform="matrix(1 0 0 0.999889 414.809 374)">π‘›π‘’π‘–π‘”β„π‘π‘π‘π‘ </text><path d="M433 404.455C419.469 404.455 408.5 398.635 408.5 391.457 408.5 384.278 419.469 378.458 433 378.458 446.531 378.458 457.5 384.278 457.5 391.457 457.5 398.635 446.531 404.455 433 404.455Z" stroke="#000000" stroke-width="1.33285" stroke-miterlimit="8" stroke-dasharray="5.33141 3.99855" fill="none" fill-rule="evenodd"/><path d="M415.567 359.596 418.653 356.034 423.195 357.29 422.917 361.628 418.202 363.053Z" stroke="#C62828" stroke-width="1.33299" stroke-miterlimit="8" fill="none" fill-rule="evenodd"/><path d="M427.5 353.753 431.5 351.461 435.5 353.753 433.972 357.46 429.028 357.46Z" stroke="#C62828" stroke-width="1.333" stroke-miterlimit="8" fill="none" fill-rule="evenodd"/><path d="M465.533 351.798 469.967 350.203 473.313 353.522 470.947 357.168 466.138 356.103Z" stroke="#C62828" stroke-width="1.33299" stroke-miterlimit="8" fill="none" fill-rule="evenodd"/><path d="M422 272.97C422 269.656 424.686 266.97 428 266.97 431.314 266.97 434 269.656 434 272.97 434 276.283 431.314 278.969 428 278.969 424.686 278.969 422 276.283 422 272.97Z" stroke="#000000" stroke-width="1.9995" stroke-miterlimit="8" fill="#A6A6A6" fill-rule="evenodd"/><path d="M422 292.968C422 289.654 424.686 286.968 428 286.968 431.314 286.968 434 289.654 434 292.968 434 296.281 431.314 298.967 428 298.967 424.686 298.967 422 296.281 422 292.968Z" stroke="#000000" stroke-width="1.9995" stroke-miterlimit="8" fill="#A6A6A6" fill-rule="evenodd"/><path d="M422 312.965C422 309.652 424.686 306.966 428 306.966 431.314 306.966 434 309.652 434 312.965 434 316.279 431.314 318.965 428 318.965 424.686 318.965 422 316.279 422 312.965Z" stroke="#000000" stroke-width="1.9995" stroke-miterlimit="8" fill="#A6A6A6" fill-rule="evenodd"/><path d="M449 282.969C449 279.655 451.91 276.969 455.5 276.969 459.09 276.969 462 279.655 462 282.969 462 286.282 459.09 288.968 455.5 288.968 451.91 288.968 449 286.282 449 282.969Z" stroke="#000000" stroke-width="1.9995" stroke-miterlimit="8" fill="#A6A6A6" fill-rule="evenodd"/><path d="M449 302.966C449 299.653 451.91 296.967 455.5 296.967 459.09 296.967 462 299.653 462 302.966 462 306.28 459.09 308.966 455.5 308.966 451.91 308.966 449 306.28 449 302.966Z" stroke="#000000" stroke-width="1.9995" stroke-miterlimit="8" fill="#A6A6A6" fill-rule="evenodd"/><path d="M434.705 272.836 444.958 276.148 444.548 277.417 434.295 274.104ZM444.714 272.568 451.095 278.832 442.255 280.178Z"/><path d="M435.096 273.171 447.101 297.134 445.909 297.73 433.904 273.768ZM449.483 294.449 449.49 303.39 442.332 298.031Z"/><path d="M0.379935-0.547515 9.65788 5.89069 8.89801 6.98572-0.379935 0.547515ZM10.4625 2.39325 14.7531 10.2376 5.9033 8.96343Z" transform="matrix(1.00011 0 0 -1 434.5 293.706)"/><path d="M434.71 292.835 445.217 296.331 444.796 297.596 434.29 294.1ZM445.004 292.749 451.33 299.068 442.479 300.336Z"/><path d="M0.560078-0.361159 13.6093 19.8753 12.4892 20.5977-0.560078 0.361159ZM15.6874 16.9494 16.6609 25.8373 8.96647 21.2833Z" transform="matrix(1.00011 0 0 -1 434.5 313.305)"/><path d="M0.210979-0.632148 10.7858 2.89718 10.3638 4.16147-0.210979 0.632148ZM10.5764-0.685521 16.8963 5.63912 8.0446 6.90026Z" transform="matrix(1.00011 0 0 -1 434.5 314.105)"/><path d="M418.5 271.637C418.5 267.127 422.156 263.471 426.667 263.471L459.333 263.471C463.844 263.471 467.5 267.127 467.5 271.637L467.5 318.298C467.5 322.808 463.844 326.464 459.333 326.464L426.667 326.464C422.156 326.464 418.5 322.808 418.5 318.298Z" stroke="#000000" stroke-width="2.99925" stroke-miterlimit="8" stroke-dasharray="11.997 8.99774" fill="none" fill-rule="evenodd"/><path d="M0 2.49978C0 1.11919 1.11919-1.08205e-15 2.49977-1.08205e-15L14.4984 0C15.879 -5.41024e-16 16.9982 1.11919 16.9982 2.49978L16.9982 12.4986C16.9982 13.8792 15.879 14.9984 14.4984 14.9984L2.49977 14.9984C1.11919 14.9984 0 13.8792 0 12.4986Z" stroke="#000000" stroke-width="1.33285" stroke-miterlimit="8" fill="#FFFFFF" fill-rule="evenodd" transform="matrix(-1.00011 0 0 1 449.5 288.468)"/><text font-family="Cambria Math,Cambria Math_MSFontService,sans-serif" font-weight="400" font-size="13" transform="matrix(1 0 0 0.999889 433.061 300)">π¶</text><text font-family="Cambria Math,Cambria Math_MSFontService,sans-serif" font-weight="400" font-size="9" transform="matrix(1 0 0 0.999889 439.819 302)">π‘΅</text><path d="M424 80.4911C424 76.9017 426.91 73.9918 430.5 73.9918 434.09 73.9918 437 76.9017 437 80.4911 437 84.0806 434.09 86.9904 430.5 86.9904 426.91 86.9904 424 84.0806 424 80.4911Z" stroke="#000000" stroke-width="1.9995" stroke-miterlimit="8" fill="#A6A6A6" fill-rule="evenodd"/><path d="M424 100.489C424 96.8994 426.91 93.9895 430.5 93.9895 434.09 93.9895 437 96.8994 437 100.489 437 104.078 434.09 106.988 430.5 106.988 426.91 106.988 424 104.078 424 100.489Z" stroke="#000000" stroke-width="1.9995" stroke-miterlimit="8" fill="#A6A6A6" fill-rule="evenodd"/><path d="M424 120.487C424 116.897 426.91 113.987 430.5 113.987 434.09 113.987 437 116.897 437 120.487 437 124.076 434.09 126.986 430.5 126.986 426.91 126.986 424 124.076 424 120.487Z" stroke="#000000" stroke-width="1.9995" stroke-miterlimit="8" fill="#A6A6A6" fill-rule="evenodd"/><path d="M452 90.49C452 86.9006 454.686 83.9907 458 83.9907 461.314 83.9907 464 86.9006 464 90.49 464 94.0795 461.314 96.9893 458 96.9893 454.686 96.9893 452 94.0795 452 90.49Z" stroke="#000000" stroke-width="1.9995" stroke-miterlimit="8" fill="#A6A6A6" fill-rule="evenodd"/><path d="M452 110.488C452 106.898 454.686 103.988 458 103.988 461.314 103.988 464 106.898 464 110.488 464 114.077 461.314 116.987 458 116.987 454.686 116.987 452 114.077 452 110.488Z" stroke="#000000" stroke-width="1.9995" stroke-miterlimit="8" fill="#A6A6A6" fill-rule="evenodd"/><path d="M437.705 80.8568 447.958 84.1698 447.548 85.4381 437.295 82.1251ZM447.714 80.5893 454.095 86.8532 445.255 88.1989Z"/><path d="M438.096 81.1925 450.101 105.155 448.909 105.752 436.904 81.7894ZM452.483 102.471 452.49 111.412 445.332 106.053Z"/><path d="M0.379935-0.547515 9.65788 5.89069 8.89801 6.98572-0.379935 0.547515ZM10.4625 2.39325 14.7531 10.2376 5.9033 8.96343Z" transform="matrix(1.00011 0 0 -1 437.5 100.728)"/><path d="M437.71 100.856 448.217 104.352 447.796 105.617 437.29 102.121ZM448.004 100.77 454.33 107.089 445.479 108.358Z"/><path d="M0.560078-0.361159 13.6093 19.8753 12.4892 20.5977-0.560078 0.361159ZM15.6874 16.9494 16.6609 25.8373 8.96647 21.2833Z" transform="matrix(1.00011 0 0 -1 437.5 121.327)"/><path d="M0.210979-0.632148 10.7858 2.89718 10.3638 4.16147-0.210979 0.632148ZM10.5764-0.685521 16.8963 5.63912 8.0446 6.90026Z" transform="matrix(1.00011 0 0 -1 437.5 121.126)"/><path d="M420.5 78.6581C420.5 74.1482 424.156 70.4922 428.667 70.4922L461.333 70.4922C465.844 70.4922 469.5 74.1482 469.5 78.6581L469.5 125.319C469.5 129.829 465.844 133.485 461.333 133.485L428.667 133.485C424.156 133.485 420.5 129.829 420.5 125.319Z" stroke="#000000" stroke-width="2.99925" stroke-miterlimit="8" stroke-dasharray="11.997 8.99774" fill="none" fill-rule="evenodd"/><path d="M0 2.66642C-5.72847e-16 1.1938 1.1938 0 2.66642 0L13.3318 0C14.8044 -5.72847e-16 15.9982 1.1938 15.9982 2.66642L15.9982 15.3316C15.9982 16.8042 14.8044 17.998 13.3318 17.998L2.66642 17.998C1.1938 17.998 0 16.8042 0 15.3316Z" stroke="#000000" stroke-width="1.33285" stroke-miterlimit="8" fill="#FFFFFF" fill-rule="evenodd" transform="matrix(-1.00011 0 0 1 450.5 95.4894)"/><text font-family="Cambria Math,Cambria Math_MSFontService,sans-serif" font-weight="400" font-size="13" transform="matrix(1 0 0 0.999889 434.785 108)">π¶</text><text font-family="Cambria Math,Cambria Math_MSFontService,sans-serif" font-weight="400" font-size="9" transform="matrix(1 0 0 0.999889 441.543 111)">π‘ </text><path d="M1.21475e-06-0.999639 79.6998-0.999542 79.6998 0.999735-1.21475e-06 0.999639ZM78.367-3.99846 86.3641 0.000104949 78.3669 3.99865Z" fill="#FF7E79" transform="matrix(1.00011 0 0 -1 324 285.968)"/><path d="M328 103.989 407.709 103.989 407.709 105.988 328 105.988ZM406.376 100.99 414.374 104.989 406.376 108.987Z" fill="#76D6FF"/><path d="M0-0.999639 46.3931-0.999639 46.3931 95.893 44.3938 95.893 44.3938 0 45.3935 0.999639 0 0.999639ZM49.392 94.5601 45.3935 102.557 41.3949 94.5601Z" fill="#FF7E79" transform="matrix(1.83717e-16 1 1.00011 -1.83697e-16 297 326.964)"/><path d="M474 102.989 572.511 102.989 572.511 104.988 474 104.988ZM571.178 99.99 579.176 103.989 571.178 107.987Z" fill="#76D6FF"/><path d="M9.74391e-07-0.999639 101.004-0.99954 101.004 0.999737-9.74391e-07 0.999639ZM99.6712-3.99846 107.668 0.000104949 99.6712 3.99865Z" fill="#FF7E79" transform="matrix(1.00011 0 0 -1 472 286.968)"/><path d="M1.04747e-06-0.999639 93.4922-0.999541 93.4922 0.999737-1.04747e-06 0.999639ZM92.1593-3.99846 100.156 0.000104949 92.1593 3.99865Z" fill="#FF7E79" transform="matrix(1.00011 0 0 -1 480 373.959)"/><path d="M1.99518e-06-0.999639 45.9179-0.999547 45.9179 0.99973-1.99518e-06 0.999639ZM44.585-3.99847 52.5821 0.000104949 44.585 3.99864Z" transform="matrix(1.00011 0 0 -1 527 197.978)"/><path d="M295.008 126.034 292.146 123.773 326.206 80.6796 329.068 82.9409Z" fill="#76D6FF" fill-rule="evenodd"/><path d="M292.146 123.773 289.687 124.061 323.747 80.9676 326.206 80.6796Z" fill="#5FACCD" fill-rule="evenodd"/><path d="M295.008 126.034 292.549 126.322 289.687 124.061 292.146 123.773Z" fill="#91DEFF" fill-rule="evenodd"/><path d="M295.008 126.034 292.549 126.322 289.687 124.061 323.747 80.9676 326.206 80.6796 329.068 82.9409ZM295.008 126.034 292.146 123.773 289.687 124.061M292.146 123.773 326.206 80.6796" stroke="#000000" stroke-width="0.666471" stroke-miterlimit="8" fill="none" fill-rule="evenodd"/><path d="M276.51 126.317 273.648 124.056 307.708 80.9626 310.57 83.224Z" fill="#76D6FF" fill-rule="evenodd"/><path d="M273.648 124.056 271.189 124.344 305.249 81.2506 307.708 80.9626Z" fill="#5FACCD" fill-rule="evenodd"/><path d="M276.51 126.317 274.05 126.605 271.189 124.344 273.648 124.056Z" fill="#91DEFF" fill-rule="evenodd"/><path d="M276.51 126.317 274.05 126.605 271.189 124.344 305.249 81.2506 307.708 80.9626 310.57 83.224ZM276.51 126.317 273.648 124.056 271.189 124.344M273.648 124.056 307.708 80.9626" stroke="#000000" stroke-width="0.666471" stroke-miterlimit="8" fill="none" fill-rule="evenodd"/><path d="M297.665 304.21 294.803 301.949 328.863 258.856 331.725 261.117Z" fill="#FF7E79" fill-rule="evenodd"/><path d="M294.803 301.949 292.344 302.237 326.404 259.144 328.863 258.856Z" fill="#CD6561" fill-rule="evenodd"/><path d="M297.665 304.21 295.205 304.498 292.344 302.237 294.803 301.949Z" fill="#FF9793" fill-rule="evenodd"/><path d="M297.665 304.21 295.205 304.498 292.344 302.237 326.404 259.144 328.863 258.856 331.725 261.117ZM297.665 304.21 294.803 301.949 292.344 302.237M294.803 301.949 328.863 258.856" stroke="#000000" stroke-width="0.666471" stroke-miterlimit="8" fill="none" fill-rule="evenodd"/><path d="M275.689 308.467 272.827 306.206 306.887 263.113 309.749 265.374Z" fill="#FF7E79" fill-rule="evenodd"/><path d="M272.827 306.206 270.368 306.494 304.428 263.401 306.887 263.113Z" fill="#CD6561" fill-rule="evenodd"/><path d="M275.689 308.467 273.23 308.755 270.368 306.494 272.827 306.206Z" fill="#FF9793" fill-rule="evenodd"/><path d="M275.689 308.467 273.23 308.755 270.368 306.494 304.428 263.401 306.887 263.113 309.749 265.374ZM275.689 308.467 272.827 306.206 270.368 306.494M272.827 306.206 306.887 263.113" stroke="#000000" stroke-width="0.666471" stroke-miterlimit="8" fill="none" fill-rule="evenodd"/><text font-family="Cambria Math,Cambria Math_MSFontService,sans-serif" font-weight="400" font-size="11" transform="matrix(1 0 0 0.999889 403.468 426)">π‘ƒπ‘ π‘’π‘Άπ‘‘π‘</text><text font-family="Cambria Math,Cambria Math_MSFontService,sans-serif" font-weight="400" font-size="11" transform="matrix(1 0 0 0.999889 438.693 426)"></text><text font-family="Cambria Math,Cambria Math_MSFontService,sans-serif" font-weight="400" font-size="11" transform="matrix(1 0 0 0.999889 441.026 426)">πΏπ‘π‘π‘’π‘™</text><text font-family="Cambria Math,Cambria Math_MSFontService,sans-serif" font-weight="400" font-size="11" transform="matrix(1 0 0 0.999889 467.526 426)"></text><text font-family="Cambria Math,Cambria Math_MSFontService,sans-serif" font-weight="400" font-size="11" transform="matrix(1 0 0 0.999889 469.858 426)">y</text><path d="M2.63721-7.74512 4.46338-6.05322 4.17334-5.74707 2.27734-7.05225 2.21826-7.05225 0.290039-5.74707 0-6.05322 1.91748-7.74512Z" transform="matrix(1 0 0 0.999889 470.358 426)"/><text fill="#000000" fill-opacity="0" font-family="Arial,Arial_MSFontService,sans-serif" font-size="1.99805" y="-5.99683">ΰ·</text><text font-family="Cambria Math,Cambria Math_MSFontService,sans-serif" font-weight="400" font-size="8" transform="matrix(1 0 0 0.999889 475.19 428)">t</text><text font-family="Cambria Math,Cambria Math_MSFontService,sans-serif" font-weight="400" font-size="11" transform="matrix(1 0 0 0.999889 275.788 73)">π‘†π‘π‘Άπ‘π‘π‘’</text><text font-family="Cambria Math,Cambria Math_MSFontService,sans-serif" font-weight="400" font-size="11" transform="matrix(1 0 0 0.999889 309.013 73)"></text><text font-family="Cambria Math,Cambria Math_MSFontService,sans-serif" font-weight="400" font-size="11" transform="matrix(1 0 0 0.999889 311.346 73)">πΉπ‘’π‘π‘΅π‘Άπ‘π‘’π‘ </text><text font-family="Cambria Math,Cambria Math_MSFontService,sans-serif" font-weight="400" font-size="11" transform="matrix(1 0 0 0.999889 272.739 323)"></text><text font-family="Cambria Math,Cambria Math_MSFontService,sans-serif" font-weight="400" font-size="11" transform="matrix(1 0 0 0.999889 275.071 323)">π‘‡π‘π‘π‘”π‘’π‘΅</text><text font-family="Cambria Math,Cambria Math_MSFontService,sans-serif" font-weight="400" font-size="11" transform="matrix(1 0 0 0.999889 308.823 323)"></text><text font-family="Cambria Math,Cambria Math_MSFontService,sans-serif" font-weight="400" font-size="11" transform="matrix(1 0 0 0.999889 311.156 323)">πΉπ‘’π‘π‘΅π‘Άπ‘π‘’π‘ </text><text font-family="Cambria Math,Cambria Math_MSFontService,sans-serif" font-weight="400" font-size="11" transform="matrix(1 0 0 0.999889 160.04 54)">πΊπ‘’π‘›π‘’π‘π‘π‘΅π‘π‘</text><text font-family="Cambria Math,Cambria Math_MSFontService,sans-serif" font-weight="400" font-size="11" transform="matrix(1 0 0 0.999889 142.672 348)">πΉπ‘’π‘π‘΅π‘Άπ‘π‘’</text><text font-family="Cambria Math,Cambria Math_MSFontService,sans-serif" font-weight="400" font-size="11" transform="matrix(1 0 0 0.999889 181.562 348)"></text><text font-family="Cambria Math,Cambria Math_MSFontService,sans-serif" font-weight="400" font-size="11" transform="matrix(1 0 0 0.999889 183.895 348)">πΈπ‘¥π‘΅π‘π‘π‘π‘΅π‘π‘</text><text font-family="Cambria Math,Cambria Math_MSFontService,sans-serif" font-weight="400" font-size="11" transform="matrix(1 0 0 0.999889 423.456 61)">C</text><text font-family="Cambria Math,Cambria Math_MSFontService,sans-serif" font-weight="400" font-size="11" transform="matrix(1 0 0 0.999889 429.454 61)">π‘™π‘π‘ π‘ π‘–π‘“π‘–π‘’π‘</text><text font-family="Cambria Math,Cambria Math_MSFontService,sans-serif" font-weight="400" font-size="11" transform="matrix(1 0 0 0.999889 36.0524 327)">π‘‡</text><text font-family="Cambria Math,Cambria Math_MSFontService,sans-serif" font-weight="400" font-size="11" transform="matrix(1 0 0 0.999889 42.3841 327)">π‘π‘π‘”π‘’π‘΅</text><text font-family="Cambria Math,Cambria Math_MSFontService,sans-serif" font-weight="400" font-size="11" transform="matrix(1 0 0 0.999889 69.8039 327)"></text><text font-family="Cambria Math,Cambria Math_MSFontService,sans-serif" font-weight="400" font-size="11" transform="matrix(1 0 0 0.999889 72.1367 327)">π·</text><text font-family="Cambria Math,Cambria Math_MSFontService,sans-serif" font-weight="400" font-size="11" transform="matrix(1 0 0 0.999889 79.4682 327)">π‘π‘΅π‘</text><text font-family="Cambria Math,Cambria Math_MSFontService,sans-serif" font-weight="400" font-size="13" transform="matrix(1 0 0 0.999889 400.167 160)">π’π’π’</text><text font-family="Cambria Math,Cambria Math_MSFontService,sans-serif" font-weight="400" font-size="9" transform="matrix(1 0 0 0.999889 408.212 168)">π‘­</text><text font-family="Cambria Math,Cambria Math_MSFontService,sans-serif" font-weight="400" font-size="8" transform="matrix(1 0 0 0.999889 414.377 170)">π’•</text><text font-family="Cambria Math,Cambria Math_MSFontService,sans-serif" font-weight="400" font-size="13" transform="matrix(1 0 0 0.999889 428.38 160)"></text><text font-family="Cambria Math,Cambria Math_MSFontService,sans-serif" font-weight="400" font-size="13" transform="matrix(1 0 0 0.999889 433.599 160)">π’π’‚π’™</text><text font-family="Cambria Math,Cambria Math_MSFontService,sans-serif" font-weight="400" font-size="9" transform="matrix(1 0 0 0.999889 444.509 168)">π‘®</text><text font-family="Cambria Math,Cambria Math_MSFontService,sans-serif" font-weight="400" font-size="13" transform="matrix(1 0 0 0.999889 464.144 160)">π‘«π’π’”</text><path d="M228.5 186.479 220.273 179.48 224.583 179.48C220.176 167.119 204.782 158.482 187.155 158.482L192.535 158.482C210.162 158.482 225.556 167.119 229.963 179.48L234.273 179.48Z" fill="#4472C4" fill-rule="evenodd"/><path d="M189.845 158.55C169.59 159.574 153.88 171.773 153.88 186.479L148.5 186.479C148.5 171.017 165.806 158.482 187.155 158.482 188.053 158.482 188.95 158.505 189.845 158.55Z" fill="#375C9E" fill-rule="evenodd"/><path d="M189.845 158.55C169.59 159.574 153.88 171.773 153.88 186.479L148.5 186.479C148.5 171.017 165.806 158.482 187.155 158.482L192.535 158.482C210.162 158.482 225.556 167.119 229.963 179.48L234.273 179.48 228.5 186.479 220.273 179.48 224.583 179.48C220.176 167.119 204.782 158.482 187.155 158.482" stroke="#172C51" stroke-width="1.333" stroke-miterlimit="8" fill="none" fill-rule="evenodd"/><text font-family="Cambria Math,Cambria Math_MSFontService,sans-serif" font-weight="400" font-size="13" transform="matrix(1 0 0 0.999889 125.727 200)">π‘¨π’π’•π’†π’“π’π’‚π’•π’†π’π’</text><text font-family="Cambria Math,Cambria Math_MSFontService,sans-serif" font-weight="400" font-size="13" transform="matrix(1 0 0 0.999889 202.708 200)"></text><text font-family="Cambria Math,Cambria Math_MSFontService,sans-serif" font-weight="400" font-size="13" transform="matrix(1 0 0 0.999889 205.707 200)">π‘Όπ’‘π’…π’‚π’•π’†</text><path d="M140.5 204.477 148.727 211.477 144.417 211.477C148.824 223.838 164.218 232.474 181.845 232.474L176.465 232.474C158.838 232.474 143.444 223.838 139.037 211.477L134.727 211.477Z" fill="#4472C4" fill-rule="evenodd"/><path d="M179.155 232.406C199.41 231.383 215.12 219.184 215.12 204.477L220.5 204.477C220.5 219.94 203.194 232.474 181.845 232.474 180.947 232.474 180.05 232.452 179.155 232.406Z" fill="#375C9E" fill-rule="evenodd"/><path d="M179.155 232.406C199.41 231.383 215.12 219.184 215.12 204.477L220.5 204.477C220.5 219.94 203.194 232.474 181.845 232.474L176.465 232.474C158.838 232.474 143.444 223.838 139.037 211.477L134.727 211.477 140.5 204.477 148.727 211.477 144.417 211.477C148.824 223.838 164.218 232.474 181.845 232.474" stroke="#172C51" stroke-width="1.333" stroke-miterlimit="8" fill="none" fill-rule="evenodd"/><path d="M503.5 20.998 522.484 20.9981 522.484 23.997 503.5 23.9969ZM520.985 17.9992 529.982 22.4976 520.985 26.9959Z" fill="#76D6FF"/><path d="M502.5 37.9962 521.484 37.9963 521.484 40.9952 502.5 40.9951ZM519.985 34.9973 528.982 39.4958 519.985 43.9941Z" fill="#FF7E79"/><path d="M493.5 23.6642C493.5 18.0499 498.052 13.4985 503.667 13.4985L619.333 13.4985C624.948 13.4985 629.5 18.0499 629.5 23.6642L629.5 64.326C629.5 69.9404 624.948 74.4917 619.333 74.4917L503.667 74.4917C498.052 74.4917 493.5 69.9404 493.5 64.326Z" stroke="#172C51" stroke-width="2.99925" stroke-linecap="square" stroke-miterlimit="8" stroke-dasharray="8.99774 2.99925" fill="none" fill-rule="evenodd"/><text font-family="Cambria Math,Cambria Math_MSFontService,sans-serif" font-weight="400" font-size="9" transform="matrix(1 0 0 0.999889 546.4 29)">πΊπ‘’π‘›π‘’π‘π‘π‘΅π‘–π‘π‘›</text><text font-family="Cambria Math,Cambria Math_MSFontService,sans-serif" font-weight="400" font-size="9" transform="matrix(1 0 0 0.999889 593.715 29)"></text><text font-family="Cambria Math,Cambria Math_MSFontService,sans-serif" font-weight="400" font-size="9" transform="matrix(1 0 0 0.999889 595.714 29)">π‘†π‘΅π‘π‘”π‘’</text><text font-family="Cambria Math,Cambria Math_MSFontService,sans-serif" font-weight="400" font-size="9" transform="matrix(1 0 0 0.999889 547.208 44)">π΄π‘‘π‘π‘π‘΅π‘π‘΅π‘–π‘π‘›</text><text font-family="Cambria Math,Cambria Math_MSFontService,sans-serif" font-weight="400" font-size="9" transform="matrix(1 0 0 0.999889 594.69 44)"></text><text font-family="Cambria Math,Cambria Math_MSFontService,sans-serif" font-weight="400" font-size="9" transform="matrix(1 0 0 0.999889 596.689 44)">π‘†π‘΅π‘π‘”π‘’</text><path d="M505.5 64.4929 509.5 60.4933 509.5 62.5803 523.5 62.5803 523.5 60.4933 527.5 64.4929 523.5 68.4924 523.5 66.4054 509.5 66.4054 509.5 68.4924Z" stroke="#000000" stroke-width="1.333" stroke-miterlimit="8" fill="none" fill-rule="evenodd"/><text font-family="Cambria Math,Cambria Math_MSFontService,sans-serif" font-weight="400" font-size="9" transform="matrix(1 0 0 0.999889 548.211 57)">P</text><text font-family="Cambria Math,Cambria Math_MSFontService,sans-serif" font-weight="400" font-size="9" transform="matrix(1 0 0 0.999889 553.543 57)">π‘Άπ‘™π‘™</text><text font-family="Cambria Math,Cambria Math_MSFontService,sans-serif" font-weight="400" font-size="9" transform="matrix(1 0 0 0.999889 565.167 57)"></text><text font-family="Cambria Math,Cambria Math_MSFontService,sans-serif" font-weight="400" font-size="9" transform="matrix(1 0 0 0.999889 567.167 57)">π‘π‘</text><text font-family="Cambria Math,Cambria Math_MSFontService,sans-serif" font-weight="400" font-size="9" transform="matrix(1 0 0 0.999889 548.012 69)">P</text><text font-family="Cambria Math,Cambria Math_MSFontService,sans-serif" font-weight="400" font-size="9" transform="matrix(1 0 0 0.999889 553.344 69)">π‘Άπ‘ β„</text><text font-family="Cambria Math,Cambria Math_MSFontService,sans-serif" font-weight="400" font-size="9" transform="matrix(1 0 0 0.999889 568.334 69)"></text><text font-family="Cambria Math,Cambria Math_MSFontService,sans-serif" font-weight="400" font-size="9" transform="matrix(1 0 0 0.999889 570.333 69)">π΄π‘¤π‘π‘¦</text><path d="M505.5 49.7445 511 49.7445 511 47.4947 515.5 51.9942 511 56.4937 511 54.244 505.5 54.244Z" stroke="#000000" stroke-width="1.333" stroke-miterlimit="8" fill="none" fill-rule="evenodd"/><path d="M0 2.24974 5.49943 2.24974 5.49943 0 9.99891 4.49948 5.49943 8.99895 5.49943 6.74922 0 6.74922Z" stroke="#000000" stroke-width="1.33285" stroke-miterlimit="8" fill="none" fill-rule="evenodd" transform="matrix(-1.00011 0 0 1 527.5 47.4947)"/><path d="M191.055 16.8887C191.706 16.8887 138.949 0 138.949 0L138.949 10.5554C104.429 15.622 0 10.5554 0 10.5554 0 10.5554 74.0339 28.9219 138.949 26.7404L138.949 33.7773 191.055 16.8887Z" stroke="#000000" stroke-width="0.999639" stroke-miterlimit="8" fill="#FF7E79" fill-rule="evenodd" transform="matrix(-0.996796 0.0813467 0.0813557 0.996685 408.514 385.709)"/></g></svg>